<!DOCTYPE svg PUBLIC "-//W3C//DTD SVG 20010904//EN" "http://www.w3.org/TR/2001/REC-SVG-20010904/DTD/svg10.dtd">
<svg version="1.0" xmlns="http://www.w3.org/2000/svg" width="584px" height="414px" viewBox="0 0 5840 4140" preserveAspectRatio="xMidYMid meet">
<g id="layer101" fill="#333" stroke="none">
 <path d="M2738 3835 c-77 -41 -127 -123 -128 -212 l0 -43 330 0 330 0 0 50 c0 63 -30 129 -78 171 -60 53 -86 59 -254 59 -142 -1 -156 -3 -200 -25z"/>
 <path d="M2445 3495 c-18 -17 -25 -35 -25 -62 1 -42 13 -63 47 -81 27 -15 909 -17 947 -2 58 22 69 110 19 150 -25 19 -40 20 -495 20 l-469 0 -24 -25z"/>
 <path d="M2465 3278 c-52 -30 -62 -102 -20 -143 l24 -25 469 0 c455 0 470 1 495 20 50 40 39 128 -19 150 -38 15 -924 12 -949 -2z"/>
 <path d="M2468 3045 c-53 -30 -64 -95 -24 -142 l24 -28 471 0 471 0 27 27 c37 37 37 89 0 126 l-27 27 -458 2 c-390 2 -461 0 -484 -12z"/>
 <path d="M2235 2841 c-11 -5 -49 -39 -84 -77 -259 -276 -352 -673 -244 -1044 89 -308 343 -584 646 -700 228 -89 505 -94 737 -15 261 89 490 289 617 538 204 405 123 934 -192 1236 -75 73 -108 79 -156 32 -48 -49 -41 -87 30 -163 166 -179 244 -376 244 -618 0 -249 -87 -461 -259 -633 -348 -346 -895 -354 -1248 -18 -182 174 -277 397 -277 651 0 241 82 443 253 627 45 48 58 70 58 93 0 42 -15 67 -50 85 -32 17 -45 18 -75 6z"/>
 <path d="M2773 2828 c-5 -7 -15 -56 -21 -108 -6 -52 -24 -144 -39 -205 l-28 -109 -55 -12 c-76 -16 -110 -31 -143 -62 -83 -79 -72 -175 23 -203 78 -24 169 37 213 143 17 41 24 48 48 48 53 0 60 -8 38 -43 -29 -48 -25 -83 14 -122 66 -66 168 -66 234 0 39 39 44 88 13 128 -17 22 -18 26 -4 31 9 3 29 6 44 6 25 0 32 -7 50 -47 31 -70 64 -108 115 -133 55 -27 100 -22 145 16 25 21 30 33 30 68 0 83 -87 157 -202 172 -48 7 -48 7 -63 58 -31 108 -55 238 -55 295 0 41 -5 65 -16 75 -35 36 -64 10 -64 -57 0 -46 56 -346 66 -357 4 -3 -130 -37 -171 -43 -5 -1 -47 7 -93 18 -75 17 -83 21 -79 39 20 93 56 291 61 333 4 39 1 56 -10 68 -19 18 -38 19 -51 3z m-135 -550 c-26 -48 -77 -83 -108 -73 -11 3 -20 13 -20 20 0 24 44 65 85 80 65 23 69 20 43 -27z m658 23 c52 -23 89 -68 73 -87 -24 -29 -86 -3 -118 49 -37 60 -26 70 45 38z m-315 -47 c37 -19 35 -43 -4 -62 -31 -15 -61 -11 -92 11 -17 13 -18 17 -5 32 13 16 44 33 63 34 4 1 22 -6 38 -15z"/>
 <path d="M1175 2195 c-33 -33 -32 -70 4 -106 l29 -29 210 0 c194 0 211 1 235 20 13 11 28 31 31 45 7 29 -15 79 -39 89 -9 3 -113 6 -231 6 -215 0 -215 0 -239 -25z"/>
 <path d="M4215 2195 c-44 -43 -23 -115 38 -130 13 -4 112 -5 221 -3 194 3 198 3 217 27 25 31 25 85 -1 111 -19 19 -33 20 -235 20 -216 0 -216 0 -240 -25z"/>
 <path d="M2864 2000 c-79 -32 -70 -181 16 -253 41 -35 103 -51 169 -43 30 4 57 8 59 10 2 2 -4 39 -13 82 -9 44 -19 107 -22 142 l-6 62 -38 0 c-36 0 -39 -2 -39 -27 -1 -25 -2 -26 -11 -10 -10 17 -67 48 -86 46 -4 0 -18 -4 -29 -9z m96 -78 c13 -10 29 -44 40 -85 l19 -67 -25 0 c-36 0 -62 16 -79 50 -18 35 -20 91 -3 108 16 16 22 15 48 -6z"/>
 <path d="M2173 1978 c3 -13 20 -103 38 -200 l33 -178 43 0 c41 0 42 1 37 28 -3 15 -19 104 -37 197 l-32 170 -44 3 c-41 3 -43 2 -38 -20z"/>
 <path d="M2304 1983 c3 -10 15 -75 27 -145 l22 -128 40 0 c34 0 39 3 34 20 -5 19 -5 19 22 -1 42 -31 91 -35 124 -9 33 26 35 62 9 190 l-17 85 -44 3 -44 3 7 -33 c32 -157 32 -198 1 -198 -31 0 -63 45 -74 106 -23 121 -22 119 -70 122 -37 3 -42 1 -37 -15z"/>
 <path d="M2645 1973 c3 -15 16 -88 30 -161 14 -72 25 -134 25 -137 0 -3 -22 -5 -50 -5 -43 0 -50 -3 -50 -19 0 -50 3 -51 161 -51 l149 0 -6 28 c-9 38 -13 40 -69 44 l-50 3 -13 75 c-7 41 -21 113 -31 160 l-17 85 -42 3 c-41 3 -42 2 -37 -25z"/>
 <path d="M3101 1988 c0 -7 17 -101 37 -208 l38 -195 42 -3 c30 -2 42 1 41 10 0 7 -17 101 -37 208 l-38 195 -42 3 c-30 2 -42 -1 -41 -10z"/>
 <path d="M3231 1983 c0 -10 17 -103 37 -208 l37 -190 43 -3 42 -3 -6 33 c-3 18 -12 66 -20 107 -20 106 -19 109 32 47 45 -55 48 -56 97 -56 l51 0 -57 58 -58 59 32 71 c17 40 35 72 39 72 4 0 11 -11 14 -25 6 -22 9 -23 32 -15 36 14 70 12 83 -4 10 -11 5 -20 -26 -42 -53 -39 -63 -53 -63 -90 0 -63 84 -108 169 -89 35 8 34 5 21 40 -9 24 -14 26 -43 21 -22 -4 -39 -1 -52 9 -20 15 -20 16 5 33 63 44 80 64 80 94 0 77 -40 97 -193 96 l-117 0 -21 -59 c-12 -32 -25 -59 -29 -59 -17 0 -29 25 -44 93 -6 24 -11 27 -46 27 -32 0 -40 -4 -39 -17z"/>
 <path d="M1763 1178 c-155 -155 -166 -177 -114 -229 52 -52 74 -41 229 114 115 116 132 138 132 166 0 43 -38 81 -81 81 -28 0 -50 -17 -166 -132z"/>
 <path d="M3894 1196 c-33 -15 -44 -33 -44 -74 0 -22 29 -56 138 -165 120 -119 141 -137 170 -137 61 0 99 67 66 117 -29 43 -256 260 -279 266 -11 4 -34 0 -51 -7z"/>
 <path d="M2880 753 c-20 -26 -21 -36 -18 -231 3 -200 3 -204 27 -223 32 -26 77 -24 106 6 25 24 25 25 25 228 0 200 0 204 -23 225 -34 32 -89 30 -117 -5z"/>
 </g>
<g id="layer102" fill="#f59f05" stroke="none">
 <path d="M2235 2841 c-11 -5 -49 -39 -84 -77 -259 -276 -352 -673 -244 -1044 89 -308 343 -584 646 -700 228 -89 505 -94 737 -15 261 89 490 289 617 538 204 405 123 934 -192 1236 -75 73 -108 79 -156 32 -48 -49 -41 -87 30 -163 166 -179 244 -376 244 -618 0 -249 -87 -461 -259 -633 -348 -346 -895 -354 -1248 -18 -182 174 -277 397 -277 651 0 241 82 443 253 627 45 48 58 70 58 93 0 42 -15 67 -50 85 -32 17 -45 18 -75 6z"/>
 <path d="M2773 2828 c-5 -7 -15 -56 -21 -108 -6 -52 -24 -144 -39 -205 l-28 -109 -55 -12 c-76 -16 -110 -31 -143 -62 -83 -79 -72 -175 23 -203 78 -24 169 37 213 143 17 41 24 48 48 48 53 0 60 -8 38 -43 -29 -48 -25 -83 14 -122 66 -66 168 -66 234 0 39 39 44 88 13 128 -17 22 -18 26 -4 31 9 3 29 6 44 6 25 0 32 -7 50 -47 31 -70 64 -108 115 -133 55 -27 100 -22 145 16 25 21 30 33 30 68 0 83 -87 157 -202 172 -48 7 -48 7 -63 58 -31 108 -55 238 -55 295 0 41 -5 65 -16 75 -35 36 -64 10 -64 -57 0 -46 56 -346 66 -357 4 -3 -130 -37 -171 -43 -5 -1 -47 7 -93 18 -75 17 -83 21 -79 39 20 93 56 291 61 333 4 39 1 56 -10 68 -19 18 -38 19 -51 3z m-135 -550 c-26 -48 -77 -83 -108 -73 -11 3 -20 13 -20 20 0 24 44 65 85 80 65 23 69 20 43 -27z m658 23 c52 -23 89 -68 73 -87 -24 -29 -86 -3 -118 49 -37 60 -26 70 45 38z m-315 -47 c37 -19 35 -43 -4 -62 -31 -15 -61 -11 -92 11 -17 13 -18 17 -5 32 13 16 44 33 63 34 4 1 22 -6 38 -15z"/>
 <path d="M1175 2195 c-33 -33 -32 -70 4 -106 l29 -29 210 0 c194 0 211 1 235 20 13 11 28 31 31 45 7 29 -15 79 -39 89 -9 3 -113 6 -231 6 -215 0 -215 0 -239 -25z"/>
 <path d="M4215 2195 c-44 -43 -23 -115 38 -130 13 -4 112 -5 221 -3 194 3 198 3 217 27 25 31 25 85 -1 111 -19 19 -33 20 -235 20 -216 0 -216 0 -240 -25z"/>
 <path d="M1763 1178 c-155 -155 -166 -177 -114 -229 52 -52 74 -41 229 114 115 116 132 138 132 166 0 43 -38 81 -81 81 -28 0 -50 -17 -166 -132z"/>
 <path d="M3894 1196 c-33 -15 -44 -33 -44 -74 0 -22 29 -56 138 -165 120 -119 141 -137 170 -137 61 0 99 67 66 117 -29 43 -256 260 -279 266 -11 4 -34 0 -51 -7z"/>
 <path d="M2880 753 c-20 -26 -21 -36 -18 -231 3 -200 3 -204 27 -223 32 -26 77 -24 106 6 25 24 25 25 25 228 0 200 0 204 -23 225 -34 32 -89 30 -117 -5z"/>
 </g>
<g id="layer103" fill="#f6a71a" stroke="none">
 <path d="M2235 2841 c-11 -5 -49 -39 -84 -77 -259 -276 -352 -673 -244 -1044 89 -308 343 -584 646 -700 228 -89 505 -94 737 -15 261 89 490 289 617 538 204 405 123 934 -192 1236 -75 73 -108 79 -156 32 -48 -49 -41 -87 30 -163 166 -179 244 -376 244 -618 0 -249 -87 -461 -259 -633 -348 -346 -895 -354 -1248 -18 -182 174 -277 397 -277 651 0 241 82 443 253 627 45 48 58 70 58 93 0 42 -15 67 -50 85 -32 17 -45 18 -75 6z"/>
 <path d="M3064 2829 c-12 -20 -15 -91 -4 -84 6 4 10 -5 10 -20 0 -14 -4 -24 -9 -21 -5 4 -7 -3 -4 -14 3 -11 9 -17 14 -14 5 3 9 -2 9 -11 0 -10 -5 -13 -12 -9 -8 5 -9 2 -5 -10 4 -10 7 -27 7 -37 0 -13 4 -18 11 -13 9 5 10 -1 5 -20 -5 -20 -4 -26 5 -20 9 5 10 -1 5 -20 -4 -18 -3 -25 4 -21 5 3 10 -1 10 -10 0 -9 -4 -14 -9 -11 -4 3 -4 -15 2 -39 6 -24 14 -42 19 -39 4 3 8 0 8 -5 0 -6 -7 -11 -16 -11 -8 0 -12 -4 -9 -10 3 -5 -1 -10 -10 -10 -10 0 -13 5 -9 12 5 8 2 9 -10 5 -10 -4 -27 -7 -37 -7 -12 0 -17 -5 -14 -10 4 -7 -3 -8 -21 -4 -19 5 -25 4 -20 -5 8 -12 6 -13 -36 -15 -15 -1 -24 2 -21 7 3 5 -4 6 -17 2 -16 -5 -20 -4 -15 4 5 8 -1 10 -21 5 -17 -5 -25 -3 -21 3 4 6 -6 13 -23 15 -16 2 -27 1 -24 -4 3 -4 -3 -8 -14 -8 -10 0 -19 6 -19 13 0 6 -3 23 -7 36 -5 15 -4 21 2 17 5 -3 12 5 14 19 3 13 1 22 -3 19 -5 -3 -9 2 -9 11 0 9 4 14 9 11 5 -3 12 1 15 10 3 8 2 12 -4 9 -6 -3 -10 1 -10 10 0 9 5 13 10 10 7 -4 8 3 4 21 -5 21 -4 25 6 19 10 -6 11 -2 6 19 -3 14 -2 26 3 26 5 0 11 13 13 29 2 17 1 28 -4 25 -4 -3 -8 4 -8 16 0 12 4 19 9 16 5 -3 8 20 7 52 -1 57 -1 57 -31 56 l-30 -1 4 -63 c2 -47 0 -61 -9 -55 -9 6 -10 -1 -5 -25 4 -20 4 -30 -3 -26 -12 7 -24 -61 -15 -93 5 -18 3 -22 -6 -16 -10 6 -11 2 -6 -15 5 -17 4 -21 -6 -15 -9 6 -11 2 -7 -13 4 -12 1 -22 -4 -22 -6 0 -8 -13 -4 -32 5 -25 3 -29 -5 -18 -9 12 -10 11 -6 -7 3 -14 0 -21 -7 -20 -6 1 -10 -4 -8 -10 1 -8 -8 -13 -24 -13 -14 0 -23 4 -20 8 3 5 -8 6 -24 4 -17 -2 -28 -8 -25 -12 7 -11 -22 -21 -39 -14 -21 8 -96 -63 -89 -83 4 -10 2 -14 -4 -10 -13 8 -23 -15 -23 -52 0 -37 35 -82 57 -74 10 4 14 2 10 -4 -4 -6 2 -13 13 -16 11 -3 18 -1 14 4 -3 5 4 9 16 9 14 0 19 -4 14 -12 -5 -8 -2 -9 10 -5 10 4 22 7 27 7 6 0 8 4 5 9 -7 10 22 24 33 16 5 -2 21 10 37 28 l29 32 -30 -25 c-17 -14 -11 -6 13 18 29 28 41 48 38 60 -3 9 -1 24 4 32 5 8 10 11 10 5 0 -5 4 -5 8 2 4 6 25 14 47 18 22 4 37 4 33 0 -4 -4 0 -13 9 -20 13 -9 13 -14 3 -20 -9 -6 -11 -4 -6 6 4 8 1 6 -7 -4 -8 -10 -12 -27 -9 -39 3 -14 1 -19 -6 -14 -8 5 -12 -1 -12 -18 0 -33 46 -87 67 -79 11 4 14 2 9 -5 -8 -14 -11 -13 71 -15 33 -1 59 1 56 6 -4 6 1 8 34 11 21 2 52 38 46 54 -4 9 -2 13 4 9 20 -12 8 72 -12 91 -18 16 -18 16 -4 -3 13 -19 13 -19 -4 -6 -17 13 -17 16 -3 26 9 7 13 15 9 18 -9 10 17 8 60 -4 21 -5 35 -14 32 -19 -7 -11 5 -41 15 -35 4 2 12 -7 19 -21 9 -20 9 -24 -1 -18 -7 4 1 -6 18 -22 16 -16 21 -22 10 -14 -21 15 -21 15 -3 -7 11 -12 25 -19 32 -17 7 3 16 0 21 -7 5 -8 3 -10 -6 -4 -8 5 -11 4 -6 -3 4 -6 14 -8 23 -5 11 4 14 3 9 -5 -4 -7 -3 -12 3 -12 5 0 17 -3 27 -7 12 -4 15 -3 10 5 -5 8 0 12 14 12 12 0 18 -4 15 -10 -10 -17 28 2 50 25 19 20 19 20 5 0 -15 -20 -15 -20 7 -2 13 11 19 25 16 35 -4 9 -2 13 4 9 15 -10 9 81 -7 96 -10 10 -11 9 -5 -2 6 -10 4 -12 -4 -7 -7 5 -10 14 -7 21 3 8 -3 19 -12 27 -15 11 -16 11 -7 -2 6 -9 1 -6 -10 6 -28 30 -60 45 -81 37 -12 -4 -15 -3 -10 5 4 7 1 12 -8 12 -8 0 -22 3 -32 7 -12 4 -15 3 -10 -5 5 -8 0 -12 -14 -12 -12 0 -18 5 -15 10 3 6 2 10 -4 10 -6 0 -14 12 -17 26 -5 19 -9 22 -15 12 -6 -8 -6 1 -2 21 4 25 3 32 -6 27 -9 -6 -10 0 -5 20 5 20 4 25 -6 19 -9 -5 -10 -2 -5 15 5 15 4 20 -4 16 -6 -4 -11 0 -11 9 0 9 4 14 9 11 4 -3 6 6 3 19 -2 14 -8 25 -13 25 -5 0 -6 12 -3 26 5 21 4 25 -6 19 -10 -6 -11 0 -6 30 5 25 4 35 -3 30 -7 -4 -11 10 -11 40 0 38 -4 48 -20 52 -11 3 -17 9 -14 14 3 5 3 9 0 9 -3 0 -8 -5 -12 -11z m-317 -246 c-4 -3 -7 0 -7 7 0 7 3 10 7 7 3 -4 3 -10 0 -14z m10 -180 c-4 -3 -7 0 -7 7 0 7 3 10 7 7 3 -4 3 -10 0 -14z m430 0 c-4 -3 -7 0 -7 7 0 7 3 10 7 7 3 -4 3 -10 0 -14z m-667 -56 c0 -2 -15 -16 -32 -33 l-33 -29 29 33 c28 30 36 37 36 29z m237 -14 c-4 -3 -10 -3 -14 0 -3 4 0 7 7 7 7 0 10 -3 7 -7z m380 0 c-4 -3 -10 -3 -14 0 -3 4 0 7 7 7 7 0 10 -3 7 -7z m-476 -20 c12 -14 12 -16 0 -8 -11 6 -13 4 -8 -9 4 -9 3 -15 -2 -12 -5 3 -12 -1 -15 -10 -4 -10 -2 -13 7 -8 6 3 1 -4 -13 -17 -14 -13 -19 -19 -10 -14 13 9 13 8 2 -7 -8 -10 -20 -14 -29 -11 -9 4 -14 2 -10 -3 5 -8 -21 -11 -59 -6 -7 1 -14 11 -17 22 -3 13 -1 18 6 13 6 -4 8 0 4 10 -3 9 1 21 11 29 15 11 16 11 7 -2 -5 -9 1 -4 14 10 13 14 20 19 17 13 -5 -9 -2 -11 8 -7 9 3 14 9 11 14 -2 4 7 5 22 2 18 -3 24 -1 19 7 -11 18 20 13 35 -6z m599 6 c0 -6 9 -9 20 -6 13 3 18 1 13 -6 -4 -7 0 -8 11 -4 11 5 15 3 10 -5 -5 -7 -2 -9 9 -5 11 4 25 -4 42 -24 27 -33 32 -54 13 -65 -7 -5 -8 -3 -3 7 7 11 6 12 -6 3 -18 -14 -61 -25 -54 -14 3 4 -2 11 -11 14 -10 4 -13 2 -9 -7 4 -6 0 -4 -8 6 -9 10 -24 25 -34 34 -10 8 -11 11 -3 7 8 -4 3 4 -12 19 -27 25 -38 44 -19 33 5 -3 11 1 15 9 6 17 26 20 26 4z m-296 -50 c-2 -4 3 -10 12 -13 8 -3 12 -2 9 4 -3 6 -4 10 -1 10 3 0 10 -10 17 -21 14 -28 -6 -70 -29 -62 -9 4 -13 2 -9 -4 4 -5 -6 -10 -23 -10 -17 0 -27 5 -23 10 4 6 -1 8 -11 4 -10 -4 -15 -3 -11 3 6 9 -7 14 -27 11 -4 0 -4 7 -1 16 5 12 3 14 -8 9 -8 -4 0 6 17 22 22 20 41 29 62 28 16 0 28 -4 26 -7z m473 -16 c-4 -3 -7 0 -7 7 0 7 3 10 7 7 3 -4 3 -10 0 -14z m-990 -10 c-4 -3 -7 0 -7 7 0 7 3 10 7 7 3 -4 3 -10 0 -14z m630 0 c-4 -3 -7 0 -7 7 0 7 3 10 7 7 3 -4 3 -10 0 -14z m-61 -41 c-17 -16 -18 -16 -5 5 7 12 15 20 18 17 3 -2 -3 -12 -13 -22z m-569 -9 c-4 -3 -7 0 -7 7 0 7 3 10 7 7 3 -4 3 -10 0 -14z m360 0 c-4 -3 -7 0 -7 7 0 7 3 10 7 7 3 -4 3 -10 0 -14z m-336 -30 c13 -16 12 -17 -3 -4 -10 7 -18 15 -18 17 0 8 8 3 21 -13z m364 -3 c10 -11 16 -20 13 -20 -3 0 -13 9 -23 20 -10 11 -16 20 -13 20 3 0 13 -9 23 -20z m235 17 c0 -2 -10 -12 -22 -23 l-23 -19 19 23 c18 21 26 27 26 19z m-173 -54 c-4 -3 -10 -3 -14 0 -3 4 0 7 7 7 7 0 10 -3 7 -7z"/>
 <path d="M3345 2270 c10 -11 20 -20 23 -20 3 0 -3 9 -13 20 -10 11 -20 20 -23 20 -3 0 3 -9 13 -20z"/>
 <path d="M2879 2243 c-13 -16 -12 -17 4 -4 16 13 21 21 13 21 -2 0 -10 -8 -17 -17z"/>
 <path d="M3105 2820 c21 -24 26 -25 19 -6 -3 8 -13 17 -22 21 -13 5 -13 2 3 -15z"/>
 <path d="M1175 2195 c-33 -33 -32 -70 4 -106 l29 -29 210 0 c194 0 211 1 235 20 13 11 28 31 31 45 7 29 -15 79 -39 89 -9 3 -113 6 -231 6 -215 0 -215 0 -239 -25z"/>
 <path d="M4215 2195 c-44 -43 -23 -115 38 -130 13 -4 112 -5 221 -3 194 3 198 3 217 27 25 31 25 85 -1 111 -19 19 -33 20 -235 20 -216 0 -216 0 -240 -25z"/>
 <path d="M1763 1178 c-155 -155 -166 -177 -114 -229 52 -52 74 -41 229 114 115 116 132 138 132 166 0 43 -38 81 -81 81 -28 0 -50 -17 -166 -132z"/>
 <path d="M3894 1196 c-33 -15 -44 -33 -44 -74 0 -22 29 -56 138 -165 120 -119 141 -137 170 -137 61 0 99 67 66 117 -29 43 -256 260 -279 266 -11 4 -34 0 -51 -7z"/>
 <path d="M2880 753 c-20 -26 -21 -36 -18 -231 3 -200 3 -204 27 -223 32 -26 77 -24 106 6 25 24 25 25 25 228 0 200 0 204 -23 225 -34 32 -89 30 -117 -5z"/>
 </g>
<g id="layer104" fill="#ffce06" stroke="none">
 <path d="M2235 2841 c-11 -5 -49 -39 -84 -77 -259 -276 -352 -673 -244 -1044 89 -308 343 -584 646 -700 228 -89 505 -94 737 -15 261 89 490 289 617 538 204 405 123 934 -192 1236 -75 73 -108 79 -156 32 -48 -49 -41 -87 30 -163 166 -179 244 -376 244 -618 0 -249 -87 -461 -259 -633 -348 -346 -895 -354 -1248 -18 -182 174 -277 397 -277 651 0 241 82 443 253 627 45 48 58 70 58 93 0 42 -15 67 -50 85 -32 17 -45 18 -75 6z"/>
 <path d="M1175 2195 c-33 -33 -32 -70 4 -106 l29 -29 210 0 c194 0 211 1 235 20 13 11 28 31 31 45 7 29 -15 79 -39 89 -9 3 -113 6 -231 6 -215 0 -215 0 -239 -25z"/>
 <path d="M4215 2195 c-44 -43 -23 -115 38 -130 13 -4 112 -5 221 -3 194 3 198 3 217 27 25 31 25 85 -1 111 -19 19 -33 20 -235 20 -216 0 -216 0 -240 -25z"/>
 <path d="M1763 1178 c-155 -155 -166 -177 -114 -229 52 -52 74 -41 229 114 115 116 132 138 132 166 0 43 -38 81 -81 81 -28 0 -50 -17 -166 -132z"/>
 <path d="M3894 1196 c-33 -15 -44 -33 -44 -74 0 -22 29 -56 138 -165 120 -119 141 -137 170 -137 61 0 99 67 66 117 -29 43 -256 260 -279 266 -11 4 -34 0 -51 -7z"/>
 <path d="M2880 753 c-20 -26 -21 -36 -18 -231 3 -200 3 -204 27 -223 32 -26 77 -24 106 6 25 24 25 25 25 228 0 200 0 204 -23 225 -34 32 -89 30 -117 -5z"/>
 </g>

</svg>